<svg xmlns="http://www.w3.org/2000/svg" width="637" height="655" viewBox="0 0 637 655">
  <g id="Group_4" data-name="Group 4" transform="translate(-926 -246)">
    <g id="Rectangle_4" data-name="Rectangle 4" transform="translate(1086 406)" fill="#847676" stroke="#707070" stroke-width="1">
      <rect width="160" height="167" rx="34" stroke="none"/>
      <rect x="0.5" y="0.5" width="159" height="166" rx="33.5" fill="none"/>
    </g>
    <g id="Rectangle_5" data-name="Rectangle 5" transform="translate(1243 246)" fill="#75344a" stroke="#707070" stroke-width="1">
      <rect width="160" height="167" rx="34" stroke="none"/>
      <rect x="0.5" y="0.5" width="159" height="166" rx="33.5" fill="none"/>
    </g>
    <g id="Rectangle_8" data-name="Rectangle 8" transform="translate(1403 406)" fill="#75344a" stroke="#707070" stroke-width="1" opacity="0.42">
      <rect width="160" height="167" rx="34" stroke="none"/>
      <rect x="0.5" y="0.5" width="159" height="166" rx="33.5" fill="none"/>
    </g>
    <g id="Rectangle_6" data-name="Rectangle 6" transform="translate(1243 573)" fill="#75344a" stroke="#707070" stroke-width="1">
      <rect width="160" height="167" rx="34" stroke="none"/>
      <rect x="0.5" y="0.5" width="159" height="166" rx="33.5" fill="none"/>
    </g>
    <g id="Rectangle_7" data-name="Rectangle 7" transform="translate(1086 734)" fill="#847676" stroke="#707070" stroke-width="1">
      <rect width="160" height="167" rx="34" stroke="none"/>
      <rect x="0.5" y="0.5" width="159" height="166" rx="33.5" fill="none"/>
    </g>
    <g id="Rectangle_9" data-name="Rectangle 9" transform="translate(926 573)" fill="#847676" stroke="#707070" stroke-width="1" opacity="0.42">
      <rect width="160" height="167" rx="34" stroke="none"/>
      <rect x="0.5" y="0.5" width="159" height="166" rx="33.5" fill="none"/>
    </g>
    <g id="Ellipse_2" data-name="Ellipse 2" transform="translate(1249 413)" fill="#def9a2" stroke="#707070" stroke-width="1">
      <circle cx="77" cy="77" r="77" stroke="none"/>
      <circle cx="77" cy="77" r="76.5" fill="none"/>
    </g>
    <g id="Ellipse_3" data-name="Ellipse 3" transform="translate(1089 574)" fill="#6ecdd1" stroke="#707070" stroke-width="1">
      <circle cx="77" cy="77" r="77" stroke="none"/>
      <circle cx="77" cy="77" r="76.5" fill="none"/>
    </g>
  </g>
</svg>
